<svg xmlns="http://www.w3.org/2000/svg" viewBox="0 0 760 400" font-family="Arial">
  <defs><marker id="arrB" viewBox="0 0 10 10" refX="8" refY="5" markerWidth="7" markerHeight="7" orient="auto-start-reverse"><path d="M0,0 L10,5 L0,10 z" fill="#2563EB"/></marker><marker id="arrG" viewBox="0 0 10 10" refX="8" refY="5" markerWidth="7" markerHeight="7" orient="auto-start-reverse"><path d="M0,0 L10,5 L0,10 z" fill="#6B7280"/></marker><marker id="arrV" viewBox="0 0 10 10" refX="8" refY="5" markerWidth="7" markerHeight="7" orient="auto-start-reverse"><path d="M0,0 L10,5 L0,10 z" fill="#6D3FA8"/></marker><marker id="arrR" viewBox="0 0 10 10" refX="8" refY="5" markerWidth="7" markerHeight="7" orient="auto-start-reverse"><path d="M0,0 L10,5 L0,10 z" fill="#DC2626"/></marker><marker id="arrT" viewBox="0 0 10 10" refX="8" refY="5" markerWidth="7" markerHeight="7" orient="auto-start-reverse"><path d="M0,0 L10,5 L0,10 z" fill="#0D9488"/></marker><marker id="arrK" viewBox="0 0 10 10" refX="8" refY="5" markerWidth="7" markerHeight="7" orient="auto-start-reverse"><path d="M0,0 L10,5 L0,10 z" fill="#1F2937"/></marker></defs>
  <rect x="0" y="0" width="760" height="400" fill="#FFFFFF"/>
<rect x="30" y="36" width="340" height="344" rx="12" fill="#FFFFFF" stroke="#DC2626" stroke-width="2.5"/>
  <rect x="30" y="36" width="340" height="46" rx="12" fill="#FEE2E2" stroke="#DC2626" stroke-width="2.5"/>
  <rect x="30" y="58" width="340" height="24" fill="#FEE2E2"/>
  <text x="200" y="66" text-anchor="middle" font-size="17" fill="#DC2626" font-weight="bold" font-style="normal">Vague</text>
  <rect x="54" y="102" width="292" height="66" rx="10" fill="#FDF6F6" stroke="#F3C6C6" stroke-width="2"/>
  <text x="200" y="132" text-anchor="middle" font-size="14" fill="#1F2937" font-weight="normal" font-style="normal">“The app should be quick and</text>
<text x="200" y="152" text-anchor="middle" font-size="14" fill="#1F2937" font-weight="normal" font-style="normal">easy to use.”</text>
  <circle cx="70" cy="200" r="11" fill="#DC2626"/><path d="M 66,196 l 8,8 M 74,196 l -8,8" fill="none" stroke="#FFFFFF" stroke-width="2.2" stroke-linecap="round"/>
  <text x="96" y="205" text-anchor="start" font-size="14" fill="#6B7280" font-weight="normal" font-style="normal">Unambiguous</text>
  <circle cx="70" cy="242" r="11" fill="#DC2626"/><path d="M 66,238 l 8,8 M 74,238 l -8,8" fill="none" stroke="#FFFFFF" stroke-width="2.2" stroke-linecap="round"/>
  <text x="96" y="247" text-anchor="start" font-size="14" fill="#6B7280" font-weight="normal" font-style="normal">Verifiable</text>
  <circle cx="70" cy="284" r="11" fill="#DC2626"/><path d="M 66,280 l 8,8 M 74,280 l -8,8" fill="none" stroke="#FFFFFF" stroke-width="2.2" stroke-linecap="round"/>
  <text x="96" y="289" text-anchor="start" font-size="14" fill="#6B7280" font-weight="normal" font-style="normal">Bounded</text>
  <circle cx="70" cy="326" r="11" fill="#DC2626"/><path d="M 66,322 l 8,8 M 74,322 l -8,8" fill="none" stroke="#FFFFFF" stroke-width="2.2" stroke-linecap="round"/>
  <text x="96" y="331" text-anchor="start" font-size="14" fill="#6B7280" font-weight="normal" font-style="normal">Source-attributed</text>
  <rect x="390" y="36" width="340" height="344" rx="12" fill="#FFFFFF" stroke="#2563EB" stroke-width="2.5"/>
  <rect x="390" y="36" width="340" height="46" rx="12" fill="#DBEAFE" stroke="#2563EB" stroke-width="2.5"/>
  <rect x="390" y="58" width="340" height="24" fill="#DBEAFE"/>
  <text x="560" y="66" text-anchor="middle" font-size="17" fill="#2563EB" font-weight="bold" font-style="normal">Testable</text>
  <rect x="414" y="102" width="292" height="66" rx="10" fill="#F7FAFF" stroke="#BFD5F2" stroke-width="2"/>
  <text x="560" y="126" text-anchor="middle" font-size="12" fill="#1F2937" font-weight="normal" font-style="normal">The system shall notify the nominated</text>
<text x="560" y="143" text-anchor="middle" font-size="12" fill="#1F2937" font-weight="normal" font-style="normal">family contact within 60 s of an</text>
<text x="560" y="160" text-anchor="middle" font-size="12" fill="#1F2937" font-weight="normal" font-style="normal">unacknowledged alert.</text>
  <circle cx="430" cy="200" r="11" fill="#2E7D46"/><path d="M 426,200 l 3,3.5 l 5,-6.5" fill="none" stroke="#FFFFFF" stroke-width="2.2" stroke-linecap="round"/>
  <text x="456" y="205" text-anchor="start" font-size="14" fill="#1F2937" font-weight="normal" font-style="normal">Unambiguous</text>
  <circle cx="430" cy="242" r="11" fill="#2E7D46"/><path d="M 426,242 l 3,3.5 l 5,-6.5" fill="none" stroke="#FFFFFF" stroke-width="2.2" stroke-linecap="round"/>
  <text x="456" y="247" text-anchor="start" font-size="14" fill="#1F2937" font-weight="normal" font-style="normal">Verifiable</text>
  <circle cx="430" cy="284" r="11" fill="#2E7D46"/><path d="M 426,284 l 3,3.5 l 5,-6.5" fill="none" stroke="#FFFFFF" stroke-width="2.2" stroke-linecap="round"/>
  <text x="456" y="289" text-anchor="start" font-size="14" fill="#1F2937" font-weight="normal" font-style="normal">Bounded</text>
  <circle cx="430" cy="326" r="11" fill="#2E7D46"/><path d="M 426,326 l 3,3.5 l 5,-6.5" fill="none" stroke="#FFFFFF" stroke-width="2.2" stroke-linecap="round"/>
  <text x="456" y="331" text-anchor="start" font-size="14" fill="#1F2937" font-weight="normal" font-style="normal">Source-attributed</text></svg>
