<svg xmlns="http://www.w3.org/2000/svg" viewBox="0 0 760 520" font-family="Arial">
  <defs><marker id="arrB" viewBox="0 0 10 10" refX="8" refY="5" markerWidth="7" markerHeight="7" orient="auto-start-reverse"><path d="M0,0 L10,5 L0,10 z" fill="#2563EB"/></marker><marker id="arrG" viewBox="0 0 10 10" refX="8" refY="5" markerWidth="7" markerHeight="7" orient="auto-start-reverse"><path d="M0,0 L10,5 L0,10 z" fill="#6B7280"/></marker><marker id="arrV" viewBox="0 0 10 10" refX="8" refY="5" markerWidth="7" markerHeight="7" orient="auto-start-reverse"><path d="M0,0 L10,5 L0,10 z" fill="#6D3FA8"/></marker><marker id="arrR" viewBox="0 0 10 10" refX="8" refY="5" markerWidth="7" markerHeight="7" orient="auto-start-reverse"><path d="M0,0 L10,5 L0,10 z" fill="#DC2626"/></marker><marker id="arrT" viewBox="0 0 10 10" refX="8" refY="5" markerWidth="7" markerHeight="7" orient="auto-start-reverse"><path d="M0,0 L10,5 L0,10 z" fill="#0D9488"/></marker><marker id="arrK" viewBox="0 0 10 10" refX="8" refY="5" markerWidth="7" markerHeight="7" orient="auto-start-reverse"><path d="M0,0 L10,5 L0,10 z" fill="#1F2937"/></marker></defs>
  <rect x="0" y="0" width="760" height="520" fill="#FFFFFF"/>
<line x1="437.15767664977295" y1="104.0" x2="461.4063879557372" y2="142.0" stroke="#2563EB" stroke-width="2.5" marker-end="url(#arrB)"/>
  <line x1="525.4922678357857" y1="210.0" x2="525.4922678357857" y2="286.0" stroke="#6B7280" stroke-width="2.5" marker-end="url(#arrG)"/>
  <line x1="468.33459118601274" y1="356.0" x2="444.0858798800485" y2="394.0" stroke="#6B7280" stroke-width="2.5" marker-end="url(#arrG)"/>
  <line x1="322.84232335022705" y1="396.0" x2="298.5936120442628" y2="358.0" stroke="#6B7280" stroke-width="2.5" marker-end="url(#arrG)"/>
  <line x1="234.5077321642143" y1="290.0" x2="234.5077321642143" y2="214.0" stroke="#2563EB" stroke-width="2.5" marker-end="url(#arrB)"/>
  <line x1="291.66540881398726" y1="144.0" x2="315.9141201199515" y2="106.0" stroke="#6B7280" stroke-width="2.5" marker-end="url(#arrG)"/>
  <circle cx="380" cy="250" r="72" fill="#DBEAFE" stroke="#2563EB" stroke-width="2"/>
  <text x="380" y="244" text-anchor="middle" font-size="16" fill="#1F2937" font-weight="bold" font-style="normal">Elicitation</text>
  <text x="380" y="266" text-anchor="middle" font-size="12" fill="#6B7280" font-weight="normal" font-style="normal">a cycle,</text>
  <text x="380" y="282" text-anchor="middle" font-size="12" fill="#6B7280" font-weight="normal" font-style="normal">not a phase</text>
  <rect x="318.0" y="59.0" width="124" height="46" rx="10" fill="#FFFFFF" stroke="#2563EB" stroke-width="2"/>
  <text x="380.0" y="88.0" text-anchor="middle" font-size="16" fill="#1F2937" font-weight="bold" font-style="normal">Prepare</text>
  <rect x="463.4922678357857" y="143.0" width="124" height="46" rx="10" fill="#FFFFFF" stroke="#2563EB" stroke-width="2"/>
  <text x="525.4922678357857" y="172.0" text-anchor="middle" font-size="16" fill="#1F2937" font-weight="bold" font-style="normal">Ask</text>
  <rect x="463.4922678357857" y="311.0" width="124" height="46" rx="10" fill="#FFFFFF" stroke="#2563EB" stroke-width="2"/>
  <text x="525.4922678357857" y="340.0" text-anchor="middle" font-size="16" fill="#1F2937" font-weight="bold" font-style="normal">Listen</text>
  <rect x="318.0" y="395.0" width="124" height="46" rx="10" fill="#FFFFFF" stroke="#2563EB" stroke-width="2"/>
  <text x="380.0" y="424.0" text-anchor="middle" font-size="16" fill="#1F2937" font-weight="bold" font-style="normal">Record</text>
  <rect x="172.5077321642143" y="311.0" width="124" height="46" rx="10" fill="#FEF3C7" stroke="#D97706" stroke-width="2"/>
  <text x="234.5077321642143" y="340.0" text-anchor="middle" font-size="16" fill="#1F2937" font-weight="bold" font-style="normal">Confirm</text>
  <rect x="172.5077321642143" y="143.0" width="124" height="46" rx="10" fill="#FFFFFF" stroke="#2563EB" stroke-width="2"/>
  <text x="234.5077321642143" y="172.0" text-anchor="middle" font-size="16" fill="#1F2937" font-weight="bold" font-style="normal">Repeat</text>
  <text x="380" y="480" text-anchor="middle" font-size="13" fill="#D97706" font-weight="normal" font-style="italic">The confirm step is the one teams skip — and the one that catches the misunderstanding</text></svg>
